<svg xmlns="http://www.w3.org/2000/svg" viewBox="0 0 96 96" width="32" height="32">
  <path fill="#000000" d="M82.1,91.7c-5.3,0-9.7-4.3-9.7-9.7V17.6c0-3.3-2.7-6-6-6c-3.3,0-6,2.7-6,6v57.1c0,3.9-3.1,7-7,7
    c-3.9,0-7-3.1-7-7v-50c0-2-1.6-3.7-3.7-3.7c-2,0-3.7,1.6-3.7,3.7v41.2c0,3.2-2.6,5.9-5.9,5.9s-5.9-2.6-5.9-5.9v-33
    c0-0.9-0.7-1.7-1.7-1.7c-0.9,0-1.7,0.7-1.7,1.7v24.8c0,2.1-1.7,3.9-3.9,3.9s-3.9-1.7-3.9-3.9v-16
    c0-0.3-0.2-0.5-0.5-0.5c-0.3,0-0.5,0.2-0.5,0.5v3.8c0,2.8-2.3,5-5,5c-0.8,0-1.5-0.7-1.5-1.5s0.7-1.5,1.5-1.5
    c1.1,0,2-0.9,2-2v-3.8c0-1.9,1.6-3.5,3.5-3.5s3.5,1.6,3.5,3.5v16c0,0.5,0.4,0.9,0.9,0.9s0.9-0.4,0.9-0.9V32.8
    c0-2.6,2.1-4.7,4.7-4.7c2.6,0,4.7,2.1,4.7,4.7v33c0,1.6,1.3,2.9,2.9,2.9c1.6,0,2.9-1.3,2.9-2.9V24.6
    c0-3.7,3-6.7,6.7-6.7c3.7,0,6.7,3,6.7,6.7v50c0,2.2,1.8,4,4,4c2.2,0,4-1.8,4-4V17.6c0-5,4-9,9-9s9,4,9,9V82
    c0,3.7,3,6.7,6.7,6.7s6.7-3,6.7-6.7V48.2c0-0.8,0.7-1.5,1.5-1.5s1.5,0.7,1.5,1.5V82
    C91.8,87.3,87.4,91.7,82.1,91.7z"/>
</svg>
