<svg width="856" height="252" viewBox="0 0 856 252" fill="none" xmlns="http://www.w3.org/2000/svg">
<path fill-rule="evenodd" clip-rule="evenodd" d="M135.65 55.2458C129.296 52.4911 122.538 50.7689 115.635 50.145C113.147 41.0016 114.287 31.2582 118.82 22.9256C120.98 22.622 123.053 21.8712 124.904 20.722C126.754 19.5728 128.342 18.0508 129.564 16.2541C133.977 10.5052 134.667 3.69646 131.099 1.05076C127.53 -1.59495 121.068 0.928694 116.656 6.67756C114.807 8.52453 113.58 10.8952 113.142 13.4634C112.706 16.0316 113.08 18.6714 114.215 21.0194C109.201 29.8096 106.918 39.8774 107.654 49.9544C100.988 50.0694 94.4168 51.5244 88.3333 54.2317C82.2506 56.939 76.7826 60.8425 72.2593 65.7067C65.9275 64.247 60.0401 61.3012 55.0903 57.1158C50.1405 52.9304 46.2724 47.6276 43.8101 41.6513C45.0119 39.8523 45.8136 37.8193 46.1616 35.688C46.5096 33.5568 46.396 31.3761 45.8284 29.292C44.3473 22.2317 39.6044 17.2299 35.2377 18.1143C30.871 18.9988 28.515 25.4415 29.9962 32.4942C31.3315 38.8835 35.3682 43.588 39.3436 43.7634C44.1996 56.9301 54.0268 67.6997 66.7412 73.7885C66.4035 74.4442 66.0812 75.1076 65.7819 75.7785C56.5112 96.5554 66.6491 121.526 88.6058 135.418C87.6618 136.089 86.7762 136.836 85.9581 137.652C75.8195 132.811 64.5527 130.783 53.3493 131.781C51.374 131.798 49.4013 131.637 47.4554 131.3C37.778 129.097 32.874 130.69 30.4489 133.214C29.6213 134.259 29.1002 135.51 28.9431 136.83C28.786 138.149 28.999 139.487 29.5587 140.694C30.6024 142.912 34.4396 142.6 34.4396 142.6L34.8541 142.524L35.0843 142.455C36.8974 142.533 38.6723 142.998 40.2875 143.82C41.1084 144.362 42.0487 144.7 43.0288 144.805C44.0089 144.91 45 144.779 45.9184 144.423C46.8367 144.067 47.6553 143.497 48.3048 142.76C48.9545 142.023 49.4159 141.142 49.6502 140.191C54.9879 138.838 60.5725 138.763 65.945 139.972C71.3176 141.181 76.3244 143.639 80.5553 147.144C80.3051 148.121 80.1279 149.115 80.0258 150.118C68.366 148.081 56.3655 150.603 46.5344 157.155C27.9777 168.828 20.0885 189.277 28.8834 202.834C31.979 207.447 36.5901 210.851 41.9299 212.463C41.5999 243.549 11.3397 223.412 11.3397 223.412C4.64764 218.327 1.74664 225.631 0.59551 230.915C-1.89867 240.59 4.24857 242.268 4.24857 242.268C8.89158 243.236 8.78414 237.403 8.78414 237.403C8.83018 236.877 8.84553 236.557 8.84553 236.557C8.82612 235.247 9.19725 233.96 9.91227 232.859C10.7821 232.245 11.8115 231.894 12.8772 231.846C13.9429 231.799 14.9999 232.058 15.9213 232.592L17.0495 233.294C45.0994 250.258 50.9242 225.356 52.1291 214.064C60.8598 214.048 69.4221 211.676 76.9023 207.202C100.348 216.024 76.0735 237.662 76.0735 237.662C69.4578 242.847 75.9891 247.346 80.9314 249.724C89.9027 254.398 93.0185 248.962 93.0185 248.962C95.0753 244.761 89.2888 243.48 89.2888 243.48L88.4676 243.221C87.1737 242.932 85.9919 242.274 85.0679 241.33C84.6642 240.356 84.5598 239.286 84.7678 238.253C84.975 237.221 85.4853 236.272 86.2344 235.528L87.1937 234.62C104.898 217.404 95.9271 206.646 85.8046 200.775C89.935 197.34 93.3025 193.089 95.6938 188.294C98.0852 183.499 99.4474 178.261 99.6953 172.915C102.709 173.09 105.727 172.622 108.544 171.543C110.423 174.979 112.929 178.037 115.934 180.562C118.303 182.57 121.063 184.072 124.042 184.976C127.019 185.88 130.153 186.167 133.247 185.818C136.341 185.469 139.33 184.492 142.029 182.948C144.727 181.404 147.078 179.326 148.934 176.842C162.065 168.264 151.167 160.251 148.88 159.885C148.332 159.715 147.741 159.746 147.213 159.971C146.686 160.196 146.256 160.601 146.003 161.112C145.235 163.079 142.296 163.445 142.296 163.445C141.244 163.723 140.261 164.212 139.407 164.882C138.553 165.551 137.846 166.388 137.33 167.34C136.815 168.291 136.501 169.338 136.409 170.415C136.316 171.492 136.447 172.576 136.793 173.601C135.923 174.741 134.806 175.671 133.523 176.322C132.242 176.973 130.828 177.328 129.388 177.36C127.949 177.393 126.52 177.102 125.21 176.508C123.9 175.916 122.741 175.037 121.821 173.937L121.629 173.777C119.337 171.594 117.693 168.827 116.878 165.778C119.011 163.355 120.54 160.466 121.339 157.347C122.139 154.227 122.188 150.965 121.483 147.823C143.286 152.222 164.459 149.348 172.096 132.185C182.586 108.64 163.753 67.3612 135.65 55.2458Z" fill="#3968DE"/>
<path fill-rule="evenodd" clip-rule="evenodd" d="M433.685 59.6825H327.331C325.672 59.6825 324.081 60.3421 322.908 61.516C321.735 62.69 321.076 64.2821 321.076 65.9423V86.3683C321.076 88.0282 321.735 89.6209 322.908 90.7943C324.081 91.9685 325.672 92.628 327.331 92.628H363.101V224.06C363.101 229.305 366.849 232.447 373.196 232.447H389.64C395.988 232.447 399.738 229.343 399.738 224.06V92.6509H433.677C434.498 92.6509 435.312 92.4893 436.071 92.1744C436.83 91.8595 437.52 91.399 438.101 90.8172C438.682 90.2362 439.143 89.5462 439.457 88.7868C439.771 88.0274 439.933 87.2131 439.933 86.3912V65.9423C439.933 64.2835 439.275 62.6922 438.103 61.5186C436.932 60.3449 435.342 59.6845 433.685 59.6825ZM306.521 67.5662C305.652 61.8402 302.194 59.6902 296.425 59.6902H258.911C253.143 59.6902 249.387 61.8402 248.526 67.5662L219.957 222.405C218.807 228.131 222.243 232.424 229.482 232.424H245.065C247.381 232.758 249.736 232.171 251.623 230.788C253.511 229.406 254.781 227.337 255.162 225.028L258.363 203.885C258.422 203.815 258.467 203.735 258.499 203.649C258.72 203.021 259.102 202.463 259.608 202.032C260.114 201.601 260.726 201.311 261.381 201.194C287.289 202.475 300.783 227.879 300.783 227.879L300.897 227.78C301.801 229.352 303.139 230.628 304.751 231.456C306.362 232.283 308.178 232.628 309.981 232.447H325.571C332.787 232.447 336.239 228.39 335.096 222.428L306.521 67.5662ZM285.475 174.858C285.179 174.858 284.883 174.881 284.59 174.927H270.219C269.93 174.881 269.637 174.858 269.344 174.858C264.124 174.858 263.414 171.961 263.414 170.398L268.749 138.192L272.872 106.467C273.072 105.314 273.662 104.268 274.543 103.5C275.424 102.732 276.542 102.291 277.71 102.25C282.099 102.25 282.282 107.259 282.282 107.259L286.306 138.2L291.418 170.764C291.342 172.358 290.382 174.858 285.497 174.858H285.475ZM578.084 59.7283H549.806C543.459 59.7283 540.281 62.351 539.42 67.6043L527.304 118.902L523.96 139.488L523.791 139.435C523.791 139.435 523.913 145.275 519.623 145.275C518.495 145.2 517.422 144.754 516.572 144.007C515.722 143.259 515.142 142.253 514.922 141.143L511.112 118.91L499.285 67.612C499.143 66.4017 498.759 65.2323 498.155 64.1735C497.552 63.1146 496.742 62.1877 495.775 61.4481C494.806 60.7084 493.7 60.171 492.52 59.8677C491.341 59.5644 490.112 59.5015 488.907 59.6825H460.629C454.281 59.6825 450.533 62.5493 450.533 67.795V224.098C450.533 229.343 454.281 232.485 460.629 232.485H472.745C479.092 232.485 482.842 229.381 482.842 224.098V141.753L482.491 137.178C482.469 136.776 482.526 136.373 482.66 135.992C482.794 135.613 483.002 135.263 483.272 134.963C483.541 134.664 483.868 134.422 484.233 134.25C484.597 134.077 484.992 133.979 485.394 133.961C486.781 133.961 487.68 135.196 488.244 136.568L499.582 193.295C499.582 193.409 499.643 193.523 499.674 193.63L503.751 214.491C503.751 214.491 504.673 225.661 519.174 225.752H519.357C533.751 225.661 534.665 214.491 534.665 214.491L538.551 194.461C538.673 194.08 538.765 193.69 538.826 193.295L549.616 140.205V140.068L550.074 137.841C550.569 136.065 551.544 133.945 553.357 133.945C554.105 133.949 554.822 134.244 555.355 134.768C555.889 135.292 556.197 136.003 556.215 136.751L555.827 141.753V224.098C555.827 229.343 559.576 232.485 565.931 232.485H578.046C584.394 232.485 588.143 229.381 588.143 224.098V67.795C588.165 62.5569 584.128 59.6825 578.07 59.6825L578.084 59.7283Z" fill="#121213"/>
<path fill-rule="evenodd" clip-rule="evenodd" d="M612.641 206.534C610.129 206.557 607.678 207.319 605.598 208.725C603.518 210.132 601.902 212.121 600.95 214.442C599.999 216.763 599.756 219.313 600.249 221.772C600.743 224.232 601.954 226.489 603.729 228.264C605.504 230.04 607.763 231.251 610.226 231.748C612.688 232.245 615.243 232.004 617.57 231.058C619.897 230.112 621.892 228.5 623.303 226.425C624.716 224.35 625.483 221.907 625.509 219.398C625.619 217.682 625.362 215.963 624.754 214.353C624.147 212.743 623.203 211.282 621.986 210.065C620.769 208.846 619.305 207.902 617.694 207.294C616.083 206.685 614.361 206.425 612.641 206.534ZM660.28 146.006C644.303 146.006 635.579 152.213 635.579 165.831V211.987C635.579 225.755 644.303 231.964 660.28 231.964C676.257 231.964 684.978 225.887 684.978 212.137V202.227C685.061 201.411 684.963 200.587 684.686 199.814C684.411 199.042 683.967 198.341 683.384 197.762C682.804 197.182 682.103 196.738 681.329 196.464C680.556 196.187 679.731 196.088 678.914 196.168H671.509C670.691 196.088 669.868 196.187 669.094 196.464C668.319 196.738 667.618 197.182 667.038 197.762C666.458 198.341 666.011 199.042 665.736 199.814C665.459 200.587 665.359 201.411 665.442 202.227V211.632C665.442 215.393 663.673 217.274 660.263 217.274C656.853 217.274 655.08 215.506 655.08 211.632V166.488C655.08 162.726 656.853 160.847 660.263 160.847C663.673 160.847 665.442 162.613 665.442 166.488V175.892C665.352 176.71 665.448 177.538 665.721 178.315C665.994 179.09 666.439 179.795 667.021 180.378C667.603 180.961 668.308 181.407 669.084 181.682C669.86 181.956 670.689 182.054 671.509 181.967H678.914C679.733 182.05 680.558 181.951 681.335 181.674C682.109 181.398 682.814 180.954 683.394 180.371C683.976 179.789 684.419 179.086 684.694 178.311C684.969 177.536 685.065 176.71 684.978 175.892V165.982C684.922 152.213 676.2 146.006 660.129 146.006H660.28ZM717.839 146.006C701.862 146.006 693.138 152.213 693.138 165.831V212.137C693.138 225.755 701.862 231.964 717.839 231.964C733.816 231.964 742.54 225.755 742.54 212.137V165.831C742.483 152.213 733.76 146.006 717.782 146.006H717.839ZM723.02 211.554C723.02 215.316 721.249 217.199 717.839 217.199C714.429 217.199 712.656 215.429 712.656 211.554V166.414C712.656 162.652 714.448 160.771 717.839 160.771C721.23 160.771 723.02 162.539 723.02 166.414V211.554ZM816.074 146.006C809.417 146.093 803.013 148.562 798.024 152.964C796.913 150.808 795.211 149.01 793.116 147.778C791.023 146.546 788.623 145.931 786.194 146.006C780.201 146.19 774.497 148.623 770.217 152.813V152.665C770.285 151.858 770.175 151.045 769.893 150.287C769.61 149.527 769.162 148.841 768.581 148.275C768.001 147.708 767.306 147.276 766.539 147.011C765.772 146.745 764.956 146.653 764.15 146.74H756.764C755.958 146.653 755.144 146.745 754.377 147.011C753.61 147.276 752.911 147.708 752.333 148.275C751.753 148.841 751.306 149.527 751.024 150.287C750.741 151.045 750.628 151.858 750.698 152.665V225.323C750.628 226.13 750.741 226.942 751.024 227.7C751.306 228.46 751.753 229.147 752.333 229.713C752.911 230.279 753.61 230.712 754.377 230.977C755.144 231.242 755.958 231.334 756.764 231.248H764.15C764.956 231.334 765.772 231.242 766.539 230.977C767.306 230.712 768.001 230.279 768.581 229.713C769.162 229.147 769.61 228.46 769.893 227.7C770.175 226.942 770.285 226.13 770.217 225.323V167.917C770.217 164.155 771.837 162.274 775.398 162.274C778.959 162.274 780.579 164.042 780.579 167.917V225.323C780.512 226.13 780.621 226.942 780.904 227.7C781.186 228.46 781.633 229.147 782.213 229.713C782.793 230.279 783.492 230.712 784.257 230.977C785.024 231.242 785.838 231.334 786.644 231.248H794.032C794.838 231.334 795.654 231.242 796.419 230.977C797.186 230.712 797.885 230.279 798.465 229.713C799.044 229.147 799.49 228.46 799.773 227.7C800.055 226.942 800.168 226.13 800.099 225.323V167.917C800.099 164.155 801.717 162.274 805.278 162.274C808.839 162.274 810.461 164.042 810.461 167.917V225.323C810.391 226.13 810.505 226.942 810.787 227.7C811.07 228.46 811.516 229.147 812.097 229.713C812.675 230.279 813.374 230.712 814.141 230.977C814.908 231.242 815.722 231.334 816.528 231.248H823.914C824.72 231.334 825.536 231.242 826.303 230.977C827.07 230.712 827.765 230.279 828.345 229.713C828.925 229.147 829.374 228.46 829.656 227.7C829.939 226.942 830.048 226.13 829.98 225.323V162.539C829.924 150.897 823.556 146.006 816.019 146.006H816.074Z" fill="#121213"/>
<path d="M842.828 149.656C840.5 149.656 838.35 149.085 836.378 147.945C834.43 146.781 832.874 145.225 831.71 143.277C830.57 141.306 830 139.156 830 136.828C830 134.5 830.57 132.362 831.71 130.414C832.874 128.442 834.43 126.886 836.378 125.746C838.35 124.582 840.5 124 842.828 124C845.156 124 847.294 124.582 849.242 125.746C851.213 126.886 852.769 128.442 853.91 130.414C855.074 132.362 855.656 134.5 855.656 136.828C855.656 139.156 855.074 141.306 853.91 143.277C852.769 145.225 851.213 146.781 849.242 147.945C847.294 149.085 845.156 149.656 842.828 149.656ZM842.828 146.734C844.609 146.734 846.237 146.294 847.709 145.415C849.206 144.513 850.382 143.301 851.237 141.781C852.116 140.26 852.556 138.609 852.556 136.828C852.556 135.046 852.116 133.395 851.237 131.875C850.382 130.355 849.206 129.155 847.709 128.276C846.237 127.373 844.609 126.922 842.828 126.922C841.046 126.922 839.407 127.373 837.91 128.276C836.438 129.155 835.262 130.355 834.383 131.875C833.528 133.395 833.1 135.046 833.1 136.828C833.1 138.609 833.528 140.26 834.383 141.781C835.262 143.301 836.438 144.513 837.91 145.415C839.407 146.294 841.046 146.734 842.828 146.734ZM838.374 143.313C838.136 143.313 837.946 143.242 837.804 143.099C837.661 142.957 837.59 142.767 837.59 142.529V131.055C837.59 130.818 837.661 130.628 837.804 130.485C837.946 130.343 838.136 130.271 838.374 130.271H843.362C844.883 130.271 846.165 130.628 847.211 131.34C848.256 132.029 848.778 133.122 848.778 134.619C848.778 135.521 848.577 136.281 848.173 136.899C847.769 137.517 847.246 137.98 846.605 138.289L848.493 142.03C848.588 142.22 848.636 142.387 848.636 142.529C848.636 142.743 848.565 142.933 848.422 143.099C848.303 143.242 848.113 143.313 847.852 143.313H845.643C845.168 143.313 844.823 143.087 844.609 142.636L842.97 139.001H841.438V142.529C841.438 142.767 841.367 142.957 841.224 143.099C841.082 143.242 840.892 143.313 840.654 143.313H838.374ZM843.327 135.973C843.849 135.973 844.229 135.854 844.467 135.616C844.728 135.355 844.859 135.022 844.859 134.619C844.859 134.215 844.728 133.894 844.467 133.656C844.229 133.395 843.849 133.265 843.327 133.265H841.438V135.973H843.327Z" fill="#121213"/>
</svg>
