<svg width="1080" height="1080" viewBox="0 0 1080 1080" fill="none" xmlns="http://www.w3.org/2000/svg">
<rect width="1080" height="1080" fill="white"/>
<g clip-path="url(#clip0_1_682)">
<path d="M140.409 608.648C125.665 600.138 120.627 581.275 129.137 566.548L195.672 451.566L195.833 451.259C203.343 436.854 224.013 437.031 231.28 451.566L289.967 553.225C291.323 555.566 289.627 558.489 286.93 558.489H265.21C260.365 558.489 255.908 555.905 253.485 551.723L219.378 492.633C216.763 488.079 210.19 488.079 207.558 492.633L140.409 608.665L140.409 608.648Z" fill="#0F3A92"/>
<path d="M200.659 608.794H345.824C345.824 625.815 332.016 639.622 314.995 639.622H171.025C155.199 639.622 145.315 622.489 153.229 608.794L209.977 510.51C211.334 508.169 214.724 508.169 216.065 510.51L226.885 529.453C229.275 533.636 229.259 538.771 226.852 542.938L194.748 598.539C192.116 603.094 195.41 608.778 200.659 608.778" fill="#1D70BE"/>
<path d="M329.274 599.265H211.353C208.623 599.265 206.944 596.293 208.349 593.951L219.685 575.008C222.125 570.923 226.533 568.42 231.296 568.42H299.915C305.115 568.42 308.393 562.848 305.89 558.295L242.924 444.071C257.588 435.593 276.353 440.793 284.573 455.618L347.071 568.403C354.983 582.114 345.1 599.249 329.274 599.249" fill="#3FB228"/>
<path d="M387.503 596.729H379.235V587.524H387.503V584.875C387.503 574.573 394.237 568.694 404.282 568.694C405.639 568.694 407.609 568.871 408.707 569.114V577.98C407.69 577.802 406.317 577.721 405.558 577.721C400.697 577.721 397.725 580.192 397.725 584.875V587.524H408.125V596.729H397.725V633.452H387.503V596.729Z" fill="#1D70BE"/>
<path d="M453.958 587.524V633.436H444.254V628.155C441.702 632.16 437.018 634.453 431.398 634.453C421.177 634.453 414.021 626.621 414.021 616.043V587.508H424.245V614.768C424.245 620.985 428.168 624.99 434.047 624.99C439.925 624.99 443.753 620.985 443.753 614.768V587.508H453.975L453.958 587.524Z" fill="#1D70BE"/>
<path d="M503.78 603.624V633.436H493.558V606.175C493.558 599.958 489.634 595.953 483.853 595.953C478.072 595.953 474.05 599.958 474.05 606.175V633.436H463.828V587.523H473.453V593.062C476.004 588.798 480.784 586.505 486.485 586.505C496.707 586.505 503.78 593.579 503.78 603.624Z" fill="#1D70BE"/>
<path d="M558.296 569.987V633.452H548.589V628.091C545.182 632.177 539.644 634.486 533.507 634.486C520.299 634.486 510.252 624.086 510.252 610.553C510.252 597.02 520.477 586.523 533.424 586.523C539.561 586.523 544.842 588.736 548.073 592.66V570.002H558.296V569.987ZM548.073 610.537C548.073 602.107 542.374 595.97 534.525 595.97C526.676 595.97 520.894 602.107 520.894 610.537C520.894 618.967 526.594 625.022 534.525 625.022C542.452 625.022 548.073 619.064 548.073 610.537Z" fill="#1D70BE"/>
<path d="M565.201 621.598L573.128 617.77C575.518 623.229 580.022 626.119 585.481 626.119C590.084 626.119 593.057 623.988 593.057 620.839C593.057 617.69 589.827 616.317 586.999 615.558L579.167 613.507C571.156 611.295 567.152 606.612 567.152 600.394C567.152 592.125 574.047 586.505 584.191 586.505C593.219 586.505 600.37 591.012 603.181 598.343L595.172 602.09C593.459 597.745 589.373 595.097 584.175 595.097C579.912 595.097 577.277 597.051 577.277 599.958C577.277 602.865 580.168 604.302 582.819 605.077L590.986 607.37C598.918 609.583 603.166 614.186 603.166 620.58C603.166 628.849 595.928 634.469 585.45 634.469C575.904 634.469 568.072 629.607 565.181 621.614" fill="#1D70BE"/>
<path d="M665.113 603.624V633.436H654.89V606.175C654.89 599.958 650.966 595.953 645.184 595.953C639.402 595.953 635.379 599.958 635.379 606.175V633.436H625.156V587.523H634.784V593.062C637.336 588.798 642.116 586.505 647.815 586.505C658.038 586.505 665.113 593.579 665.113 603.624Z" fill="#1D70BE"/>
<path d="M715.961 613.427H682.223C682.743 620.758 688.104 625.441 695.175 625.441C700.634 625.441 704.302 622.793 706.337 619.046L714.766 623.132C711.953 629.689 704.464 634.469 695.08 634.469C681.19 634.469 671.566 623.907 671.566 610.439C671.566 596.97 681.368 586.505 694.304 586.505C707.241 586.505 716.446 596.647 716.446 608.823C716.446 610.439 716.284 612.054 715.929 613.427M705.446 605.497C705.106 599.36 700.168 595.016 694.288 595.016C688.412 595.016 683.549 598.763 682.353 605.497H705.446Z" fill="#1D70BE"/>
<path d="M727.549 618.031V596.729H719.199V587.525H720.556C724.981 587.525 727.549 585.054 727.549 580.629V573.297H737.772V587.525H748.673V596.729H737.772V618.031C737.772 621.954 739.385 625.604 745.861 625.604C746.717 625.604 747.817 625.524 748.93 625.346V633.517C747.316 633.775 745.266 633.937 743.648 633.937C733.346 633.937 727.549 628.139 727.549 618.014" fill="#1D70BE"/>
<path d="M823.714 587.525L807.772 633.453H798.665L787.847 600.558L776.945 633.453H767.74L751.896 587.525H762.719L772.422 618.37L782.144 587.525H793.467L803.189 618.37L812.813 587.525H823.714Z" fill="#1D70BE"/>
<path d="M825.908 610.439C825.908 596.55 836.47 586.505 850.017 586.505C863.566 586.505 874.128 596.55 874.128 610.439C874.128 624.327 863.388 634.469 850.017 634.469C836.647 634.469 825.908 624.327 825.908 610.439ZM863.471 610.519C863.471 602.09 857.772 595.953 850.017 595.953C842.268 595.953 836.564 602.09 836.564 610.519C836.564 618.949 842.185 625.005 850.017 625.005C857.85 625.005 863.471 618.949 863.471 610.519Z" fill="#1D70BE"/>
<path d="M907.689 587.024V596.23H902.147C895.848 596.23 891.585 600.315 891.585 607.469V633.453H881.362V587.541H890.989V593.936C893.379 588.914 897.805 587.041 903.425 587.041H907.689V587.024Z" fill="#1D70BE"/>
<path d="M938.097 606.015L954.875 633.452H943.555L931.443 613.347L924.289 621.099V633.452H914.065V569.987H924.289V607.291L942.861 587.524H954.875L938.097 606.015Z" fill="#1D70BE"/>
<path d="M448.142 501.724V554.612H431.541V545.795C425.662 552.852 417.589 556.373 408.044 556.373C390.409 556.373 379.25 546.376 379.25 532.876C379.25 521.119 388.504 513.335 404.524 509.814L430.524 504.227V501.724C430.524 494.376 424.501 489.531 415.683 489.531C406.865 489.531 400.406 494.231 397.467 501.724L382.189 494.085C386.744 482.038 399.97 473.673 415.682 473.673C434.932 473.673 448.142 485.284 448.142 501.724ZM430.507 522.734V517.599L408.028 522.589C401.423 524.058 397.595 527.87 397.595 532.73C397.595 538.754 402.44 542.419 410.079 542.419C421.835 542.419 430.491 533.91 430.491 522.734" fill="#102147"/>
<path d="M540.681 445.169V554.596H523.935V545.342C518.054 552.4 508.511 556.356 497.933 556.356C475.162 556.356 457.834 538.431 457.834 515.079C457.834 491.727 475.469 473.656 497.788 473.656C508.366 473.656 517.473 477.468 523.063 484.234V445.169H540.697H540.681ZM523.044 515.095C523.044 500.561 513.21 489.983 499.693 489.983C486.176 489.983 476.196 500.561 476.196 515.095C476.196 529.629 486.031 540.061 499.693 540.061C513.356 540.061 523.044 529.775 523.044 515.095Z" fill="#102147"/>
<path d="M628.373 475.433L597.094 554.612H581.38L550.226 475.433H568.881L589.308 531.1L609.722 475.433H628.373Z" fill="#102147"/>
<path d="M699.616 501.724V554.612H683.016V545.795C677.135 552.852 669.062 556.373 659.517 556.373C641.883 556.373 630.725 546.376 630.725 532.876C630.725 521.119 639.978 513.335 655.999 509.814L681.998 504.227V501.724C681.998 494.376 675.976 489.531 667.157 489.531C658.338 489.531 651.878 494.231 648.939 501.724L633.664 494.085C638.219 482.038 651.444 473.673 667.157 473.673C686.408 473.673 699.616 485.284 699.616 501.724ZM681.982 522.734V517.599L659.501 522.589C652.895 524.058 649.07 527.87 649.07 532.73C649.07 538.754 653.913 542.419 661.553 542.419C673.309 542.419 681.967 533.91 681.967 522.734" fill="#102147"/>
<path d="M782.615 503.193V554.612H764.981V507.602C764.981 496.879 758.228 489.984 748.234 489.984C738.236 489.984 731.342 496.879 731.342 507.602V554.612H713.724V475.433H730.324V484.977C734.734 477.63 742.954 473.673 752.802 473.673C770.439 473.673 782.615 485.866 782.615 503.193Z" fill="#102147"/>
<path d="M793.773 514.95C793.773 491.291 811.104 473.673 834.472 473.673C851.219 473.673 865.027 483.072 869.871 496.443L854.591 504.082C851.507 495.555 844.017 489.984 834.472 489.984C821.552 489.984 812.137 500.416 812.137 515.095C812.137 529.775 821.536 540.062 834.472 540.062C844.159 540.062 851.507 534.62 854.591 525.963L869.871 533.748C865.169 546.667 851.365 556.373 834.472 556.373C811.266 556.373 793.773 538.593 793.773 514.95Z" fill="#102147"/>
<path d="M953.167 520.085H894.999C895.887 532.714 905.139 540.804 917.331 540.804C926.729 540.804 933.044 536.251 936.582 529.791L951.115 536.848C946.272 548.152 933.336 556.388 917.185 556.388C893.236 556.388 876.651 538.173 876.651 514.966C876.651 491.76 893.544 473.689 915.88 473.689C938.215 473.689 954.07 491.162 954.07 512.172C954.07 514.966 953.782 517.76 953.183 520.101M935.11 506.439C934.531 495.861 926.003 488.368 915.864 488.368C905.719 488.368 897.354 494.828 895.303 506.439H935.11Z" fill="#102147"/>
</g>
<defs>
<clipPath id="clip0_1_682">
<rect width="829.876" height="200" fill="white" transform="translate(125 440)"/>
</clipPath>
</defs>
</svg>
