<?xml version="1.0" encoding="UTF-8"?>
<svg id="Layer_2" data-name="Layer 2" xmlns="http://www.w3.org/2000/svg" viewBox="0 0 345.04 113.87">
  <defs>
    <style>
      .cls-1 {
        fill-rule: evenodd;
      }

      .cls-1, .cls-2 {
        fill: #463da6;
        stroke-width: 0px;
      }
    </style>
  </defs>
  <g id="Layer_1-2" data-name="Layer 1">
    <g>
      <path class="cls-2" d="M0,113.87V0h47.66c5.05,0,9.66,1.07,13.85,3.22,4.18,2.04,7.83,4.83,10.95,8.37,3.11,3.43,5.53,7.35,7.25,11.75,1.72,4.29,2.58,8.69,2.58,13.2,0,6.22-1.4,12.18-4.19,17.86-2.79,5.58-6.71,10.14-11.75,13.68-5.05,3.43-10.95,5.15-17.71,5.15H14.49v32.36L0,113.87ZM14.49,63.43h34.14c3.97,0,8.3-2.42,11.19-4.56,3.01-2.15,5.99-4.88,7.6-8.53,1.72-3.65,3.43-8.55,3.43-12.84,0-2.17-.21-5.42-.89-7.99-.74-2.76-1.98-4.81-2.98-6.65-1.93-3.65-6.48-7.58-9.59-9.62-3.11-2.04-6.78-3.12-10.53-3.12H14.49v53.31Z"/>
      <path class="cls-2" d="M163.18,112.47c-6.36,0-12.19-1.13-17.47-3.39-5.18-2.37-9.71-5.54-13.59-9.53-3.78-4.09-6.74-8.78-8.9-14.05-2.05-5.28-3.07-10.88-3.07-16.8,0-7.97,1.83-15.24,5.5-21.81,3.67-6.57,8.74-11.85,15.21-15.83,6.58-3.98,14.07-5.98,22.49-5.98s15.91,2.05,22.16,6.14c6.36,3.98,11.27,9.26,14.72,15.83,3.56,6.46,5.34,13.46,5.34,21,0,1.08-.05,2.15-.16,3.23,0,.97-.05,1.72-.16,2.26h-70.05c.43,5.49,1.94,10.39,4.53,14.7,2.7,4.2,6.15,7.54,10.35,10.01,4.21,2.37,8.74,3.55,13.59,3.55,5.18,0,10.03-1.29,14.56-3.88,4.64-2.59,11.15-10.18,12.88-14.38l10.63,6.35c-2.39,4.21-6.36,9-9.92,12.23-3.56,3.23-7.82,5.76-12.78,7.59-4.85,1.83-10.14,2.75-15.85,2.75M134.71,63.7h57.59c-.43-5.49-1.99-10.34-4.69-14.54-2.7-4.2-6.15-7.48-10.35-9.85-4.21-2.37-8.84-3.55-13.91-3.55s-9.54,1.18-13.75,3.55c-4.21,2.37-7.66,5.65-10.35,9.85-2.59,4.2-4.1,9.04-4.53,14.54"/>
      <path class="cls-2" d="M302.66,112.47c-6.36,0-12.19-1.13-17.47-3.39-5.18-2.37-9.71-5.54-13.59-9.53-3.78-4.09-6.74-8.78-8.9-14.05-2.05-5.28-3.07-10.88-3.07-16.8,0-7.97,1.83-15.24,5.5-21.81,3.67-6.57,8.74-11.85,15.21-15.83,6.58-3.98,14.07-5.98,22.49-5.98s15.91,2.05,22.16,6.14c6.36,3.98,11.27,9.26,14.72,15.83,3.56,6.46,5.34,13.46,5.34,21,0,1.08-.05,2.15-.16,3.23,0,.97-.05,1.72-.16,2.26h-70.05c.43,5.49,1.94,10.39,4.53,14.7,2.7,4.2,6.15,7.54,10.35,10.01,4.21,2.37,8.74,3.55,13.59,3.55,5.18,0,10.03-1.29,14.56-3.88,4.64-2.59,11.11-10.23,12.83-14.43l10.68,6.5c-2.68,4.06-6.26,8.9-9.93,12.13-3.56,3.23-7.82,5.76-12.78,7.59-4.85,1.83-10.14,2.75-15.85,2.75M274.18,63.7h57.59c-.43-5.49-2-10.34-4.69-14.54-2.7-4.2-6.15-7.48-10.35-9.85-4.21-2.37-8.84-3.55-13.91-3.55s-9.55,1.18-13.75,3.55c-4.21,2.37-7.66,5.65-10.35,9.85-2.59,4.2-4.1,9.04-4.53,14.54"/>
      <path class="cls-2" d="M259.85,39.13c-7.12.11-13.43,1.94-18.93,5.49-5.39,3.45-9.22,8.24-11.49,14.38v46.18l-14.13,8.53V32.19l11.73-7.39,1.43,21.44c2.91-5.81,6.74-10.5,11.48-14.05,4.85-3.66,9.92-5.71,15.21-6.14h2.75c.75,0,1.4.05,1.94.16v12.92Z"/>
      <path class="cls-1" d="M106.53,10.92h-9.98s-.66,14.32-.66,14.32l10.98-6.33-.34-7.99ZM107.11,24.64l-11.5,6.63-3.48,75.64,9.29,5.27,9.19-5.27-3.5-82.27Z"/>
    </g>
  </g>
</svg>