<?xml version="1.0" encoding="UTF-8"?>
<svg id="Layer_1" data-name="Layer 1" xmlns="http://www.w3.org/2000/svg" viewBox="0 0 1500 194.94">
  <path d="M95.49,194.94c-12.87,0-25.09-2.07-36.63-6.22-11.55-4.14-21.74-10.27-30.55-18.38-8.82-8.11-15.74-18.29-20.76-30.55C2.51,127.54,0,113.39,0,97.34s2.56-30.15,7.67-42.32c5.11-12.17,12.12-22.31,21.03-30.42,8.9-8.11,19.09-14.24,30.55-18.38C70.71,2.07,82.79,0,95.49,0c15.69,0,29.84,2.74,42.45,8.2,12.6,5.47,22.88,13.45,30.82,23.94,7.93,10.49,12.7,23.32,14.28,38.49h-43.64c-1.94-10.22-7.01-18.6-15.21-25.13-8.2-6.52-17.85-9.79-28.96-9.79-9.88,0-18.87,2.38-26.98,7.14-8.11,4.76-14.55,11.68-19.31,20.76-4.76,9.08-7.14,20.33-7.14,33.72s2.38,24.69,7.14,33.86c4.76,9.17,11.19,16.09,19.31,20.76,8.11,4.67,17.1,7.01,26.98,7.01,11.46,0,21.16-3.08,29.1-9.26,7.93-6.17,12.87-14.9,14.81-26.19h44.44c-2.29,16.05-7.63,29.36-16,39.94-8.38,10.58-18.78,18.47-31.21,23.67-12.43,5.2-26.05,7.8-40.87,7.8Z"/>
  <path d="M286.2,90.99c-2.12-.35-4.23-.66-6.35-.93-2.12-.27-4.23-.4-6.35-.4-6,0-11.73,1.72-17.19,5.16-5.47,3.44-9.96,9.04-13.49,16.8-3.53,7.76-5.29,18.25-5.29,31.48v49.73h-38.62V55.55h38.62v23.81c2.12-4.93,5.33-9.34,9.66-13.23,4.32-3.87,9.21-6.96,14.68-9.26,5.46-2.29,10.93-3.44,16.4-3.44h4.1c1.32,0,2.6.18,3.84.53v37.03Z"/>
  <path d="M325.61,134.37c1.59,9.17,5.25,16.18,10.98,21.03,5.73,4.85,13,7.27,21.82,7.27,6.7,0,12.34-1.36,16.93-4.1,4.58-2.73,7.58-6.57,8.99-11.51h38.62c-2.12,14.99-9.17,26.71-21.16,35.18-11.99,8.46-26.89,12.7-44.7,12.7-11.64,0-21.82-2.03-30.55-6.08-8.73-4.06-16-9.52-21.82-16.4-5.82-6.88-10.18-14.5-13.09-22.88-2.91-8.37-4.36-16.88-4.36-25.52s1.32-16.88,3.97-25.26c2.65-8.37,6.7-16,12.17-22.88,5.46-6.88,12.47-12.34,21.03-16.4,8.55-4.06,18.65-6.08,30.29-6.08s22.35,2.03,31.08,6.08c8.73,4.06,15.91,9.39,21.56,16,5.64,6.61,9.79,13.93,12.43,21.95,2.65,8.02,3.97,16,3.97,23.94,0,3.17-.09,5.91-.27,8.2-.18,2.29-.27,3.88-.27,4.76h-97.6ZM354.7,82.26c-14.99,0-24.43,8.11-28.3,24.33h55.55c-.53-7.23-3.13-13.09-7.8-17.59-4.67-4.5-11.16-6.74-19.44-6.74Z"/>
  <path d="M500.44,194.94c-13.4,0-25-2.95-34.78-8.86-9.79-5.91-17.37-14.15-22.75-24.73-5.38-10.58-8.07-23.01-8.07-37.29s2.68-26.72,8.07-37.3c5.38-10.58,12.96-18.78,22.75-24.6,9.79-5.82,21.2-8.73,34.25-8.73,8.29,0,15.65,1.41,22.09,4.23,6.43,2.82,11.59,6.61,15.47,11.37V0h38.62v192.83h-38.62v-14.02c-3.35,4.59-8.29,8.42-14.81,11.51-6.53,3.08-13.93,4.63-22.22,4.63ZM506.79,161.88c9.87,0,17.81-3.48,23.81-10.45,5.99-6.96,8.99-16.09,8.99-27.38s-3-20.37-8.99-27.24c-6-6.88-13.93-10.31-23.81-10.31s-17.55,3.44-23.54,10.31c-6,6.88-8.99,15.96-8.99,27.24s2.99,20.41,8.99,27.38c5.99,6.97,13.84,10.45,23.54,10.45Z"/>
  <path d="M598.31,38.35V.53h41.26v37.82h-41.26ZM599.37,192.83V55.55h38.62v137.28h-38.62Z"/>
  <path d="M724.74,194.94c-9.88,0-18.74-1.76-26.58-5.29-7.85-3.53-14.02-8.86-18.51-16-4.5-7.14-6.75-16.09-6.75-26.85v-59.25h-22.22v-32.01h22.22V15.61h38.88v39.94h30.68v32.01h-30.68v54.75c0,6.17,1.76,10.98,5.29,14.42,3.53,3.44,7.94,5.16,13.23,5.16,1.94,0,3.92-.17,5.95-.53,2.02-.35,4.1-.79,6.22-1.32v33.06c-2.47.53-5.16.97-8.07,1.32-2.91.35-6.13.53-9.66.53Z"/>
  <path d="M895.87,194.94c-17.28,0-33.02-3.61-47.21-10.84-14.2-7.23-25.52-18.07-33.99-32.54-8.46-14.46-12.7-32.53-12.7-54.22,0-14.63,2.42-27.9,7.27-39.81,4.85-11.9,11.55-22.17,20.1-30.81,8.55-8.64,18.6-15.25,30.16-19.84,11.55-4.58,24.02-6.88,37.43-6.88,15.69,0,29.84,2.78,42.45,8.33,12.61,5.56,22.97,13.58,31.08,24.07,8.11,10.49,13.23,23.32,15.34,38.49h-45.23c-2.12-10.4-7.19-18.87-15.21-25.39-8.02-6.52-17.68-9.79-28.96-9.79-10.05,0-19.04,2.56-26.98,7.67-7.93,5.12-14.2,12.3-18.78,21.56-4.59,9.26-6.88,20.06-6.88,32.4s2.34,23.41,7.01,32.67c4.67,9.26,11.2,16.4,19.57,21.43,8.37,5.03,18.03,7.54,28.97,7.54,12.87,0,23.36-3.31,31.48-9.92,8.11-6.61,12.78-14.94,14.02-25h-52.11v-33.06h91.52v101.84h-38.09v-21.16c-4.23,6.88-10.94,12.48-20.1,16.8-9.17,4.32-19.22,6.48-30.15,6.48Z"/>
  <path d="M1038.97,134.37c1.59,9.17,5.25,16.18,10.98,21.03,5.73,4.85,13,7.27,21.82,7.27,6.7,0,12.34-1.36,16.93-4.1,4.58-2.73,7.58-6.57,8.99-11.51h38.62c-2.12,14.99-9.17,26.71-21.16,35.18-11.99,8.46-26.89,12.7-44.7,12.7-11.64,0-21.82-2.03-30.55-6.08-8.73-4.06-16-9.52-21.82-16.4-5.82-6.88-10.18-14.5-13.09-22.88-2.91-8.37-4.36-16.88-4.36-25.52s1.32-16.88,3.97-25.26c2.65-8.37,6.7-16,12.17-22.88,5.46-6.88,12.47-12.34,21.03-16.4,8.55-4.06,18.65-6.08,30.29-6.08s22.35,2.03,31.08,6.08c8.73,4.06,15.91,9.39,21.56,16,5.64,6.61,9.79,13.93,12.43,21.95,2.65,8.02,3.97,16,3.97,23.94,0,3.17-.09,5.91-.27,8.2-.18,2.29-.27,3.88-.27,4.76h-97.6ZM1068.07,82.26c-14.99,0-24.43,8.11-28.3,24.33h55.55c-.53-7.23-3.13-13.09-7.8-17.59-4.67-4.5-11.16-6.74-19.44-6.74Z"/>
  <path d="M1154.29,192.83V55.55h38.62v18.78c4.23-6.17,10.05-11.19,17.46-15.08,7.41-3.88,15.69-5.82,24.86-5.82,15.16,0,27.38,4.5,36.63,13.49,9.26,8.99,13.89,21.07,13.89,36.24v89.67h-38.88v-79.62c0-7.58-2.16-13.71-6.48-18.38-4.32-4.67-10.1-7.01-17.33-7.01-9.7,0-17.15,3.88-22.35,11.64-5.2,7.76-7.8,18.78-7.8,33.06v60.31h-38.62Z"/>
  <path d="M1306.64,38.35V.53h41.26v37.82h-41.26ZM1307.7,192.83V55.55h38.62v137.28h-38.62Z"/>
  <path d="M1401.87,134.37c1.59,9.17,5.25,16.18,10.98,21.03,5.73,4.85,13,7.27,21.82,7.27,6.7,0,12.34-1.36,16.93-4.1,4.58-2.73,7.58-6.57,8.99-11.51h38.62c-2.12,14.99-9.17,26.71-21.16,35.18-11.99,8.46-26.89,12.7-44.7,12.7-11.64,0-21.82-2.03-30.55-6.08-8.73-4.06-16-9.52-21.82-16.4-5.82-6.88-10.18-14.5-13.09-22.88-2.91-8.37-4.36-16.88-4.36-25.52s1.32-16.88,3.97-25.26c2.65-8.37,6.7-16,12.17-22.88,5.46-6.88,12.47-12.34,21.03-16.4,8.55-4.06,18.65-6.08,30.29-6.08s22.35,2.03,31.08,6.08c8.73,4.06,15.91,9.39,21.56,16,5.64,6.61,9.79,13.93,12.43,21.95,2.65,8.02,3.97,16,3.97,23.94,0,3.17-.09,5.91-.27,8.2-.18,2.29-.27,3.88-.27,4.76h-97.6ZM1430.96,82.26c-14.99,0-24.43,8.11-28.3,24.33h55.55c-.53-7.23-3.13-13.09-7.8-17.59-4.67-4.5-11.16-6.74-19.44-6.74Z"/>
</svg>